<svg xmlns="http://www.w3.org/2000/svg" viewBox="0 0 512 512">
  <defs>
    <linearGradient id="bg" x1="0" y1="0" x2="1" y2="1">
      <stop offset="0" stop-color="#123a42"/><stop offset="1" stop-color="#081d22"/>
    </linearGradient>
    <linearGradient id="g" x1="0" y1="0" x2="1" y2="1">
      <stop offset="0" stop-color="#8ef0dd"/><stop offset="1" stop-color="#44b6a2"/>
    </linearGradient>
    <filter id="glow" x="-40%" y="-40%" width="180%" height="180%">
      <feDropShadow dx="0" dy="0" stdDeviation="10" flood-color="#7fe3d1" flood-opacity="0.55"/>
    </filter>
  </defs>
  <rect width="512" height="512" rx="116" fill="url(#bg)"/>
  <rect x="84" y="84" width="95.17333333333333" height="95.17333333333333" rx="24.745066666666666" fill="url(#g)" filter="url(#glow)"/><rect x="208.41333333333333" y="84" width="95.17333333333333" height="95.17333333333333" rx="24.745066666666666" fill="#11333a" stroke="#2c5f69" stroke-width="6"/><rect x="332.82666666666665" y="84" width="95.17333333333333" height="95.17333333333333" rx="24.745066666666666" fill="#11333a" stroke="#2c5f69" stroke-width="6"/><rect x="84" y="208.41333333333333" width="95.17333333333333" height="95.17333333333333" rx="24.745066666666666" fill="#11333a" stroke="#2c5f69" stroke-width="6"/><rect x="208.41333333333333" y="208.41333333333333" width="95.17333333333333" height="95.17333333333333" rx="24.745066666666666" fill="url(#g)" filter="url(#glow)"/><rect x="332.82666666666665" y="208.41333333333333" width="95.17333333333333" height="95.17333333333333" rx="24.745066666666666" fill="#11333a" stroke="#2c5f69" stroke-width="6"/><rect x="84" y="332.82666666666665" width="95.17333333333333" height="95.17333333333333" rx="24.745066666666666" fill="#11333a" stroke="#2c5f69" stroke-width="6"/><rect x="208.41333333333333" y="332.82666666666665" width="95.17333333333333" height="95.17333333333333" rx="24.745066666666666" fill="#11333a" stroke="#2c5f69" stroke-width="6"/><rect x="332.82666666666665" y="332.82666666666665" width="95.17333333333333" height="95.17333333333333" rx="24.745066666666666" fill="url(#g)" filter="url(#glow)"/>
</svg>